<svg xmlns="http://www.w3.org/2000/svg" xmlns:xlink="http://www.w3.org/1999/xlink" width="400" zoomAndPan="magnify" viewBox="0 0 300 179.999997" height="240" preserveAspectRatio="xMidYMid meet" version="1.0"><defs><g/><clipPath id="6daae760e8"><rect x="0" width="205" y="0" height="120"/></clipPath><clipPath id="4201b8f6ef"><rect x="0" width="174" y="0" height="104"/></clipPath><clipPath id="b38f2f23cd"><path d="M 191 92 L 266 92 L 266 167 L 191 167 Z M 191 92 " clip-rule="nonzero"/></clipPath><clipPath id="42373cd236"><path d="M 228.894531 77.527344 L 281.398438 130.03125 L 228.894531 182.535156 L 176.394531 130.03125 Z M 228.894531 77.527344 " clip-rule="nonzero"/></clipPath><clipPath id="1ad48c37ce"><path d="M 228.894531 77.527344 L 281.398438 130.03125 L 228.894531 182.535156 L 176.394531 130.03125 Z M 228.894531 77.527344 " clip-rule="nonzero"/></clipPath></defs><g transform="matrix(1, 0, 0, 1, 3, 0)"><g clip-path="url(#6daae760e8)"><g fill="#ffffff" fill-opacity="1"><g transform="translate(7.104906, 89.222857)"><g><path d="M 14.484375 -2.945312 C 15.378906 -2.945312 16.101562 -3.234375 16.65625 -3.816406 C 17.234375 -4.425781 17.523438 -5.210938 17.523438 -6.167969 L 17.523438 -41.355469 L 25.703125 -41.355469 C 26.792969 -41.355469 27.578125 -41.554688 28.058594 -41.953125 C 28.449219 -42.277344 28.644531 -42.871094 28.644531 -43.738281 C 28.644531 -44.65625 28.445312 -45.285156 28.039062 -45.621094 C 27.566406 -46.015625 26.789062 -46.214844 25.703125 -46.214844 L 17.523438 -46.214844 L 17.523438 -55.980469 C 17.523438 -57.949219 18 -59.59375 18.957031 -60.917969 C 19.554688 -61.746094 20.296875 -62.382812 21.1875 -62.832031 C 22.078125 -63.28125 23.054688 -63.503906 24.113281 -63.503906 L 25.046875 -63.503906 C 26.207031 -63.503906 26.96875 -63.675781 27.328125 -64.011719 C 27.644531 -64.308594 27.804688 -64.964844 27.804688 -65.980469 C 27.804688 -67.632812 26.105469 -68.460938 22.710938 -68.460938 L 21.589844 -68.460938 C 18.535156 -68.460938 16.09375 -67.410156 14.265625 -65.3125 C 13.402344 -64.324219 12.738281 -63.160156 12.269531 -61.820312 C 11.785156 -60.433594 11.542969 -58.957031 11.542969 -57.382812 L 11.542969 -46.214844 L 5.980469 -46.214844 C 4.546875 -46.214844 3.585938 -46.003906 3.089844 -45.578125 C 2.742188 -45.28125 2.570312 -44.667969 2.570312 -43.738281 C 2.570312 -42.859375 2.730469 -42.289062 3.046875 -42.027344 C 3.589844 -41.578125 4.695312 -41.355469 6.355469 -41.355469 L 11.542969 -41.355469 L 11.542969 -6.167969 C 11.542969 -5.207031 11.832031 -4.417969 12.410156 -3.804688 C 12.953125 -3.230469 13.644531 -2.945312 14.484375 -2.945312 Z M 14.484375 4.066406 C 13.085938 4.066406 11.757812 3.792969 10.503906 3.25 C 9.289062 2.722656 8.222656 1.972656 7.308594 1 C 6.417969 0.0546875 5.730469 -1.039062 5.25 -2.273438 C 4.773438 -3.507812 4.53125 -4.808594 4.53125 -6.167969 L 4.53125 -37.851562 L 8.039062 -37.851562 L 8.039062 -34.347656 L 6.355469 -34.347656 C 3.015625 -34.347656 0.429688 -35.101562 -1.410156 -36.617188 C -3.429688 -38.28125 -4.4375 -40.65625 -4.4375 -43.738281 C -4.4375 -46.816406 -3.453125 -49.199219 -1.476562 -50.894531 C 0.332031 -52.449219 2.816406 -53.226562 5.980469 -53.226562 L 8.039062 -53.226562 L 8.039062 -49.71875 L 4.53125 -49.71875 L 4.53125 -57.382812 C 4.53125 -59.75 4.90625 -61.996094 5.648438 -64.128906 C 6.417969 -66.324219 7.527344 -68.253906 8.984375 -69.921875 C 10.515625 -71.679688 12.335938 -73.035156 14.441406 -73.984375 C 16.632812 -74.972656 19.015625 -75.46875 21.589844 -75.46875 L 22.710938 -75.46875 C 26.191406 -75.46875 28.984375 -74.726562 31.09375 -73.242188 C 32.300781 -72.390625 33.222656 -71.339844 33.863281 -70.085938 C 34.496094 -68.84375 34.8125 -67.476562 34.8125 -65.980469 C 34.8125 -62.933594 33.914062 -60.570312 32.113281 -58.886719 C 30.402344 -57.292969 28.046875 -56.496094 25.046875 -56.496094 L 24.113281 -56.496094 C 24.164062 -56.496094 24.242188 -56.519531 24.339844 -56.570312 C 24.46875 -56.636719 24.570312 -56.71875 24.640625 -56.816406 L 24.652344 -56.832031 C 24.640625 -56.800781 24.625 -56.757812 24.609375 -56.699219 C 24.558594 -56.507812 24.53125 -56.269531 24.53125 -55.980469 L 24.53125 -49.71875 L 21.027344 -49.71875 L 21.027344 -53.226562 L 25.703125 -53.226562 C 28.488281 -53.226562 30.769531 -52.480469 32.542969 -50.992188 C 34.617188 -49.253906 35.65625 -46.835938 35.65625 -43.738281 C 35.65625 -40.675781 34.613281 -38.28125 32.527344 -36.554688 C 30.75 -35.082031 28.476562 -34.347656 25.703125 -34.347656 L 21.027344 -34.347656 L 21.027344 -37.851562 L 24.53125 -37.851562 L 24.53125 -6.167969 C 24.53125 -4.804688 24.292969 -3.503906 23.8125 -2.269531 C 23.328125 -1.027344 22.636719 0.0664062 21.734375 1.015625 C 20.808594 1.984375 19.734375 2.730469 18.503906 3.257812 C 17.242188 3.796875 15.902344 4.066406 14.484375 4.066406 Z M 14.484375 4.066406 "/></g></g></g><g fill="#ffffff" fill-opacity="1"><g transform="translate(38.038124, 89.222857)"><g><path d="M 10.1875 -2.945312 C 11.078125 -2.945312 11.800781 -3.234375 12.355469 -3.816406 C 12.933594 -4.425781 13.222656 -5.210938 13.222656 -6.167969 L 13.222656 -65.328125 C 13.222656 -66.277344 12.953125 -67.035156 12.414062 -67.609375 C 11.878906 -68.175781 11.136719 -68.460938 10.1875 -68.460938 C 9.3125 -68.460938 8.609375 -68.175781 8.078125 -67.609375 C 7.519531 -67.019531 7.242188 -66.257812 7.242188 -65.328125 L 7.242188 -6.167969 C 7.242188 -5.1875 7.523438 -4.398438 8.089844 -3.792969 C 8.617188 -3.226562 9.316406 -2.945312 10.1875 -2.945312 Z M 10.1875 4.066406 C 8.765625 4.066406 7.425781 3.792969 6.171875 3.253906 C 4.945312 2.722656 3.875 1.96875 2.960938 0.988281 C 2.078125 0.0390625 1.398438 -1.054688 0.929688 -2.296875 C 0.464844 -3.523438 0.234375 -4.8125 0.234375 -6.167969 L 0.234375 -65.328125 C 0.234375 -66.667969 0.46875 -67.945312 0.9375 -69.160156 C 1.410156 -70.390625 2.089844 -71.476562 2.972656 -72.414062 C 3.886719 -73.386719 4.957031 -74.132812 6.179688 -74.660156 C 7.433594 -75.199219 8.769531 -75.46875 10.1875 -75.46875 C 11.640625 -75.46875 13 -75.203125 14.265625 -74.671875 C 15.511719 -74.144531 16.59375 -73.394531 17.515625 -72.414062 C 18.40625 -71.472656 19.082031 -70.382812 19.550781 -69.140625 C 20.007812 -67.933594 20.234375 -66.664062 20.234375 -65.328125 L 20.234375 -6.167969 C 20.234375 -4.804688 19.992188 -3.503906 19.511719 -2.269531 C 19.027344 -1.027344 18.335938 0.0664062 17.433594 1.015625 C 16.511719 1.984375 15.433594 2.730469 14.203125 3.257812 C 12.941406 3.796875 11.605469 4.066406 10.1875 4.066406 Z M 10.1875 4.066406 "/></g></g></g><g fill="#ffffff" fill-opacity="1"><g transform="translate(58.411058, 89.222857)"><g><path d="M 24.113281 -2.195312 C 26.402344 -2.195312 28.339844 -2.570312 29.929688 -3.320312 C 31.488281 -4.054688 32.882812 -5.242188 34.121094 -6.878906 L 35.171875 -8.269531 L 40.027344 -8.269531 L 40.738281 -4.367188 L 37.289062 -3.738281 L 40.65625 -4.71875 C 40.816406 -4.160156 41.070312 -3.742188 41.414062 -3.457031 C 41.835938 -3.117188 42.453125 -2.945312 43.273438 -2.945312 C 44.121094 -2.945312 44.796875 -3.21875 45.296875 -3.765625 C 45.847656 -4.367188 46.121094 -5.167969 46.121094 -6.167969 L 46.121094 -43.550781 C 46.121094 -44.554688 45.847656 -45.355469 45.296875 -45.953125 C 44.796875 -46.503906 44.121094 -46.777344 43.273438 -46.777344 C 42.453125 -46.777344 41.835938 -46.605469 41.414062 -46.261719 C 41.070312 -45.980469 40.816406 -45.558594 40.65625 -45 L 37.289062 -45.980469 L 40.738281 -45.355469 L 40.027344 -41.449219 L 35.230469 -41.449219 L 34.179688 -42.765625 C 32.824219 -44.460938 31.378906 -45.671875 29.84375 -46.40625 C 28.285156 -47.152344 26.375 -47.523438 24.113281 -47.523438 C 21.550781 -47.523438 19.132812 -46.96875 16.851562 -45.855469 C 14.621094 -44.765625 12.648438 -43.207031 10.933594 -41.183594 C 9.1875 -39.121094 7.835938 -36.71875 6.878906 -33.980469 C 5.875 -31.117188 5.375 -28.074219 5.375 -24.859375 C 5.375 -21.617188 5.871094 -18.558594 6.867188 -15.691406 C 7.820312 -12.953125 9.164062 -10.554688 10.902344 -8.5 C 12.605469 -6.488281 14.570312 -4.941406 16.804688 -3.859375 C 19.089844 -2.75 21.523438 -2.195312 24.113281 -2.195312 Z M 24.113281 4.8125 C 20.453125 4.8125 16.996094 4.027344 13.746094 2.449219 C 10.625 0.9375 7.890625 -1.207031 5.546875 -3.976562 C 3.25 -6.691406 1.484375 -9.832031 0.246094 -13.390625 C -1.007812 -17.003906 -1.636719 -20.828125 -1.636719 -24.859375 C -1.636719 -28.871094 -1.003906 -32.683594 0.261719 -36.296875 C 1.507812 -39.851562 3.28125 -42.988281 5.585938 -45.710938 C 7.929688 -48.484375 10.660156 -50.632812 13.777344 -52.152344 C 17.027344 -53.738281 20.472656 -54.535156 24.113281 -54.535156 C 27.433594 -54.535156 30.351562 -53.933594 32.867188 -52.730469 C 35.367188 -51.539062 37.628906 -49.675781 39.652344 -47.144531 L 36.917969 -44.953125 L 36.917969 -48.457031 L 37.101562 -48.457031 L 37.101562 -44.953125 L 33.65625 -45.582031 L 33.875 -46.789062 L 33.925781 -46.964844 C 34.492188 -48.910156 35.511719 -50.484375 36.972656 -51.683594 C 38.683594 -53.085938 40.785156 -53.785156 43.273438 -53.785156 C 44.699219 -53.785156 46.035156 -53.511719 47.285156 -52.96875 C 48.507812 -52.433594 49.570312 -51.671875 50.472656 -50.683594 C 51.339844 -49.730469 52.003906 -48.636719 52.460938 -47.390625 C 52.910156 -46.175781 53.132812 -44.898438 53.132812 -43.550781 L 53.132812 -6.167969 C 53.132812 -4.824219 52.910156 -3.542969 52.460938 -2.332031 C 52.003906 -1.085938 51.339844 0.0117188 50.472656 0.960938 C 49.570312 1.949219 48.507812 2.710938 47.285156 3.246094 C 46.035156 3.792969 44.699219 4.066406 43.273438 4.066406 C 40.785156 4.066406 38.683594 3.363281 36.972656 1.964844 C 35.511719 0.765625 34.492188 -0.808594 33.925781 -2.757812 L 33.875 -2.933594 L 33.65625 -4.140625 L 37.101562 -4.765625 L 37.101562 -1.261719 L 36.917969 -1.261719 L 36.917969 -4.765625 L 39.710938 -2.652344 C 37.78125 -0.0976562 35.519531 1.789062 32.921875 3.015625 C 30.386719 4.214844 27.449219 4.8125 24.113281 4.8125 Z M 25.792969 -7.523438 C 23.609375 -7.523438 21.585938 -7.992188 19.722656 -8.929688 C 17.925781 -9.835938 16.386719 -11.125 15.105469 -12.796875 C 13.894531 -14.375 12.980469 -16.210938 12.355469 -18.308594 C 11.75 -20.339844 11.449219 -22.523438 11.449219 -24.859375 C 11.449219 -27.171875 11.75 -29.34375 12.355469 -31.371094 C 12.976562 -33.460938 13.882812 -35.292969 15.082031 -36.871094 C 16.355469 -38.554688 17.882812 -39.851562 19.660156 -40.765625 C 21.515625 -41.71875 23.527344 -42.195312 25.703125 -42.195312 C 27.949219 -42.195312 30.015625 -41.726562 31.898438 -40.78125 C 33.71875 -39.871094 35.269531 -38.566406 36.554688 -36.871094 C 37.75 -35.296875 38.65625 -33.453125 39.265625 -31.351562 C 39.847656 -29.34375 40.140625 -27.179688 40.140625 -24.859375 C 40.140625 -22.523438 39.84375 -20.34375 39.25 -18.320312 C 38.636719 -16.21875 37.726562 -14.382812 36.527344 -12.804688 C 35.246094 -11.125 33.703125 -9.832031 31.902344 -8.925781 C 30.035156 -7.992188 28 -7.523438 25.792969 -7.523438 Z M 25.792969 -14.53125 C 27.953125 -14.53125 29.671875 -15.375 30.949219 -17.054688 C 32.40625 -18.960938 33.132812 -21.5625 33.132812 -24.859375 C 33.132812 -28.144531 32.410156 -30.738281 30.96875 -32.636719 C 29.679688 -34.335938 27.925781 -35.1875 25.703125 -35.1875 C 23.632812 -35.1875 21.957031 -34.335938 20.667969 -32.636719 C 19.195312 -30.695312 18.457031 -28.101562 18.457031 -24.859375 C 18.457031 -21.582031 19.195312 -18.984375 20.667969 -17.0625 C 21.960938 -15.375 23.667969 -14.53125 25.792969 -14.53125 Z M 25.792969 -14.53125 "/></g></g></g><g fill="#ffffff" fill-opacity="1"><g transform="translate(111.679749, 89.222857)"><g><path d="M 20.1875 -2.195312 C 22.484375 -2.195312 24.605469 -2.515625 26.550781 -3.152344 C 28.398438 -3.757812 29.984375 -4.613281 31.316406 -5.726562 C 34.023438 -7.984375 35.375 -10.96875 35.375 -14.671875 C 35.375 -16.398438 35.019531 -17.917969 34.3125 -19.222656 C 33.683594 -20.378906 32.742188 -21.441406 31.480469 -22.410156 C 30.339844 -23.285156 28.882812 -24.121094 27.101562 -24.925781 C 25.984375 -25.433594 24.285156 -26.105469 21.996094 -26.941406 C 20.527344 -27.480469 19.457031 -27.886719 18.78125 -28.164062 C 17.582031 -28.652344 16.589844 -29.128906 15.800781 -29.589844 C 13.085938 -31.183594 11.730469 -33.222656 11.730469 -35.703125 C 11.730469 -36.84375 11.972656 -37.910156 12.457031 -38.890625 C 12.933594 -39.855469 13.609375 -40.671875 14.480469 -41.347656 C 16.019531 -42.535156 17.921875 -43.132812 20.1875 -43.132812 C 21.742188 -43.132812 23.425781 -42.800781 25.234375 -42.144531 C 26.1875 -41.796875 27.519531 -41.207031 29.222656 -40.371094 C 29.585938 -40.195312 29.851562 -40.0625 30.027344 -39.980469 C 31.183594 -39.402344 31.890625 -39.113281 32.148438 -39.113281 C 33.488281 -39.113281 34.160156 -39.8125 34.160156 -41.214844 C 34.160156 -42.441406 33.199219 -43.671875 31.28125 -44.902344 C 30.003906 -45.707031 28.429688 -46.34375 26.558594 -46.8125 C 24.65625 -47.285156 22.6875 -47.523438 20.65625 -47.523438 C 18.519531 -47.523438 16.511719 -47.171875 14.632812 -46.472656 C 12.871094 -45.816406 11.332031 -44.890625 10.007812 -43.703125 C 8.730469 -42.554688 7.75 -41.246094 7.0625 -39.769531 C 6.371094 -38.292969 6.027344 -36.75 6.027344 -35.140625 C 6.027344 -33.476562 6.359375 -32.03125 7.015625 -30.804688 C 7.597656 -29.71875 8.472656 -28.734375 9.644531 -27.84375 C 10.71875 -27.027344 12.105469 -26.246094 13.804688 -25.5 C 14.878906 -25.027344 16.539062 -24.394531 18.785156 -23.601562 C 20.363281 -23.046875 21.515625 -22.621094 22.246094 -22.324219 C 23.554688 -21.800781 24.640625 -21.28125 25.503906 -20.761719 C 28.34375 -19.050781 29.765625 -16.835938 29.765625 -14.113281 C 29.765625 -13.042969 29.542969 -12.03125 29.097656 -11.085938 C 28.636719 -10.105469 27.972656 -9.269531 27.109375 -8.570312 C 25.472656 -7.25 23.351562 -6.589844 20.746094 -6.589844 C 18.691406 -6.589844 16.582031 -7 14.417969 -7.824219 C 13.230469 -8.277344 11.621094 -9.046875 9.585938 -10.140625 C 9.246094 -10.324219 8.988281 -10.460938 8.824219 -10.550781 L 8.742188 -10.59375 L 8.664062 -10.640625 C 7.765625 -11.179688 7.058594 -11.449219 6.542969 -11.449219 C 6.144531 -11.449219 5.761719 -11.234375 5.394531 -10.8125 C 4.882812 -10.222656 4.625 -9.484375 4.625 -8.597656 C 4.625 -8.277344 4.761719 -7.90625 5.035156 -7.488281 C 5.410156 -6.90625 5.957031 -6.367188 6.675781 -5.867188 L 6.753906 -5.8125 C 8.210938 -4.734375 10.082031 -3.875 12.363281 -3.234375 C 14.816406 -2.542969 17.421875 -2.195312 20.1875 -2.195312 Z M 20.1875 4.8125 C 16.777344 4.8125 13.535156 4.378906 10.460938 3.511719 C 7.363281 2.640625 4.738281 1.410156 2.59375 -0.167969 L 4.671875 -2.992188 L 2.671875 -0.113281 C 1.195312 -1.140625 0.0234375 -2.328125 -0.851562 -3.683594 C -1.871094 -5.261719 -2.382812 -6.898438 -2.382812 -8.597656 C -2.382812 -9.882812 -2.164062 -11.121094 -1.726562 -12.304688 C -1.296875 -13.460938 -0.691406 -14.496094 0.0976562 -15.402344 C 0.910156 -16.339844 1.851562 -17.074219 2.917969 -17.601562 C 4.074219 -18.171875 5.28125 -18.457031 6.542969 -18.457031 C 8.351562 -18.457031 10.261719 -17.855469 12.269531 -16.648438 L 10.46875 -13.644531 L 12.113281 -16.738281 C 12.289062 -16.644531 12.554688 -16.503906 12.90625 -16.3125 C 14.671875 -15.367188 16.003906 -14.71875 16.910156 -14.375 C 18.273438 -13.859375 19.550781 -13.597656 20.746094 -13.597656 C 21.703125 -13.597656 22.355469 -13.738281 22.703125 -14.023438 C 22.738281 -14.050781 22.757812 -14.082031 22.757812 -14.113281 C 22.757812 -14.089844 22.757812 -14.074219 22.757812 -14.074219 C 22.617188 -14.265625 22.328125 -14.492188 21.890625 -14.753906 C 21.042969 -15.265625 19.226562 -16.011719 16.449219 -16.992188 C 14.042969 -17.84375 12.222656 -18.539062 10.984375 -19.082031 C 8.78125 -20.050781 6.917969 -21.109375 5.40625 -22.261719 C 1.148438 -25.496094 -0.980469 -29.789062 -0.980469 -35.140625 C -0.980469 -37.785156 -0.417969 -40.316406 0.707031 -42.730469 C 1.796875 -45.070312 3.335938 -47.132812 5.320312 -48.917969 C 7.304688 -50.699219 9.589844 -52.070312 12.179688 -53.039062 C 14.847656 -54.035156 17.675781 -54.535156 20.65625 -54.535156 C 23.261719 -54.535156 25.796875 -54.226562 28.257812 -53.609375 C 30.851562 -52.960938 33.121094 -52.027344 35.074219 -50.800781 C 36.839844 -49.664062 38.230469 -48.382812 39.253906 -46.957031 C 40.53125 -45.175781 41.167969 -43.257812 41.167969 -41.214844 C 41.167969 -38.539062 40.285156 -36.335938 38.511719 -34.609375 C 36.800781 -32.9375 34.683594 -32.101562 32.148438 -32.101562 C 30.789062 -32.101562 29.066406 -32.625 26.984375 -33.664062 C 26.796875 -33.753906 26.515625 -33.894531 26.140625 -34.078125 C 24.660156 -34.800781 23.558594 -35.296875 22.835938 -35.558594 C 21.800781 -35.933594 20.917969 -36.121094 20.1875 -36.121094 C 19.222656 -36.121094 18.738281 -35.980469 18.738281 -35.703125 C 18.738281 -35.910156 18.691406 -36.070312 18.601562 -36.183594 C 18.710938 -36.046875 18.960938 -35.863281 19.347656 -35.636719 C 20.128906 -35.175781 21.816406 -34.472656 24.40625 -33.523438 C 26.855469 -32.625 28.71875 -31.890625 29.992188 -31.316406 C 32.261719 -30.289062 34.179688 -29.171875 35.746094 -27.972656 C 40.171875 -24.578125 42.382812 -20.144531 42.382812 -14.671875 C 42.382812 -11.765625 41.804688 -9.074219 40.644531 -6.59375 C 39.519531 -4.179688 37.90625 -2.097656 35.808594 -0.347656 C 33.789062 1.339844 31.429688 2.625 28.734375 3.507812 C 26.078125 4.378906 23.230469 4.8125 20.1875 4.8125 Z M 20.1875 4.8125 "/></g></g></g><g fill="#ffffff" fill-opacity="1"><g transform="translate(151.864899, 89.222857)"><g><path d="M 10.46875 -2.945312 C 11.308594 -2.945312 12 -3.230469 12.542969 -3.804688 C 13.121094 -4.417969 13.410156 -5.207031 13.410156 -6.167969 L 13.410156 -30.5625 C 13.410156 -32.277344 13.691406 -33.898438 14.25 -35.429688 C 14.820312 -37 15.652344 -38.378906 16.738281 -39.566406 C 17.867188 -40.796875 19.199219 -41.742188 20.734375 -42.402344 C 22.300781 -43.074219 23.988281 -43.410156 25.792969 -43.410156 C 27.628906 -43.410156 29.328125 -43.085938 30.890625 -42.4375 C 32.433594 -41.796875 33.769531 -40.875 34.898438 -39.671875 C 35.976562 -38.515625 36.800781 -37.171875 37.363281 -35.636719 C 37.90625 -34.160156 38.179688 -32.59375 38.179688 -30.933594 L 38.179688 -6.167969 C 38.179688 -5.207031 38.46875 -4.417969 39.046875 -3.804688 C 39.585938 -3.230469 40.28125 -2.945312 41.121094 -2.945312 C 42.03125 -2.945312 42.757812 -3.226562 43.304688 -3.796875 C 43.875 -4.390625 44.160156 -5.179688 44.160156 -6.167969 L 44.160156 -34.113281 C 44.160156 -38.21875 42.898438 -41.460938 40.375 -43.84375 C 37.773438 -46.296875 34.191406 -47.523438 29.625 -47.523438 C 27.667969 -47.523438 25.917969 -47.265625 24.375 -46.746094 C 22.726562 -46.195312 20.996094 -45.25 19.1875 -43.910156 L 18.257812 -43.226562 L 13.410156 -43.226562 L 13.410156 -65.328125 C 13.410156 -66.242188 13.125 -66.996094 12.554688 -67.597656 C 12.007812 -68.171875 11.3125 -68.460938 10.46875 -68.460938 C 9.574219 -68.460938 8.847656 -68.167969 8.285156 -67.585938 C 7.714844 -66.992188 7.429688 -66.238281 7.429688 -65.328125 L 7.429688 -6.167969 C 7.429688 -5.210938 7.71875 -4.425781 8.296875 -3.816406 C 8.851562 -3.234375 9.574219 -2.945312 10.46875 -2.945312 Z M 10.46875 4.066406 C 9.050781 4.066406 7.710938 3.796875 6.453125 3.257812 C 5.222656 2.730469 4.144531 1.984375 3.222656 1.015625 C 2.320312 0.0664062 1.625 -1.027344 1.144531 -2.269531 C 0.660156 -3.503906 0.421875 -4.804688 0.421875 -6.167969 L 0.421875 -65.328125 C 0.421875 -66.675781 0.664062 -67.964844 1.148438 -69.191406 C 1.636719 -70.417969 2.328125 -71.503906 3.234375 -72.441406 C 4.15625 -73.402344 5.230469 -74.144531 6.457031 -74.664062 C 7.714844 -75.199219 9.054688 -75.46875 10.46875 -75.46875 C 11.867188 -75.46875 13.191406 -75.199219 14.445312 -74.65625 C 15.65625 -74.132812 16.71875 -73.390625 17.632812 -72.429688 C 18.527344 -71.488281 19.214844 -70.410156 19.695312 -69.1875 C 20.179688 -67.960938 20.421875 -66.671875 20.421875 -65.328125 L 20.421875 -46.730469 L 16.917969 -46.730469 L 16.917969 -50.234375 L 17.101562 -50.234375 L 17.101562 -46.730469 L 15.019531 -49.546875 C 17.425781 -51.324219 19.800781 -52.605469 22.144531 -53.394531 C 24.410156 -54.152344 26.90625 -54.535156 29.625 -54.535156 C 32.757812 -54.535156 35.640625 -54.0625 38.277344 -53.117188 C 40.941406 -52.164062 43.246094 -50.773438 45.1875 -48.941406 C 47.140625 -47.097656 48.625 -44.902344 49.648438 -42.359375 C 50.664062 -39.839844 51.167969 -37.089844 51.167969 -34.113281 L 51.167969 -6.167969 C 51.167969 -4.785156 50.929688 -3.472656 50.449219 -2.234375 C 49.964844 -0.984375 49.265625 0.113281 48.355469 1.0625 C 47.433594 2.023438 46.351562 2.765625 45.113281 3.28125 C 43.863281 3.804688 42.53125 4.066406 41.121094 4.066406 C 39.71875 4.066406 38.394531 3.792969 37.140625 3.25 C 35.925781 2.722656 34.859375 1.972656 33.945312 1 C 33.050781 0.0546875 32.367188 -1.039062 31.886719 -2.273438 C 31.410156 -3.507812 31.167969 -4.808594 31.167969 -6.167969 L 31.167969 -30.933594 C 31.167969 -32.578125 30.703125 -33.894531 29.777344 -34.882812 C 28.832031 -35.898438 27.503906 -36.402344 25.792969 -36.402344 C 24.164062 -36.402344 22.867188 -35.878906 21.90625 -34.828125 C 20.917969 -33.75 20.421875 -32.324219 20.421875 -30.5625 L 20.421875 -6.167969 C 20.421875 -4.808594 20.179688 -3.507812 19.703125 -2.273438 C 19.222656 -1.039062 18.535156 0.0546875 17.644531 1 C 16.730469 1.972656 15.664062 2.722656 14.449219 3.25 C 13.195312 3.792969 11.871094 4.066406 10.46875 4.066406 Z M 10.46875 4.066406 "/></g></g></g><g fill="#de2025" fill-opacity="1"><g transform="translate(7.104906, 89.222857)"><g><path d="M 14.484375 0.5625 C 18.316406 0.5625 21.027344 -2.429688 21.027344 -6.167969 L 21.027344 -37.851562 L 25.703125 -37.851562 C 29.347656 -37.851562 32.148438 -39.625 32.148438 -43.738281 C 32.148438 -47.945312 29.347656 -49.71875 25.703125 -49.71875 L 21.027344 -49.71875 L 21.027344 -55.980469 C 21.027344 -58.320312 22.054688 -60 24.113281 -60 L 25.046875 -60 C 29.160156 -60 31.308594 -61.871094 31.308594 -65.980469 C 31.308594 -69.722656 28.226562 -71.964844 22.710938 -71.964844 L 21.589844 -71.964844 C 13.085938 -71.964844 8.039062 -65.234375 8.039062 -57.382812 L 8.039062 -49.71875 L 5.980469 -49.71875 C 1.402344 -49.71875 -0.933594 -47.757812 -0.933594 -43.738281 C -0.933594 -39.8125 1.308594 -37.851562 6.355469 -37.851562 L 8.039062 -37.851562 L 8.039062 -6.167969 C 8.039062 -2.429688 10.746094 0.5625 14.484375 0.5625 Z M 14.484375 0.5625 "/></g></g></g><g fill="#de2025" fill-opacity="1"><g transform="translate(38.038124, 89.222857)"><g><path d="M 10.1875 0.5625 C 14.019531 0.5625 16.730469 -2.429688 16.730469 -6.167969 L 16.730469 -65.328125 C 16.730469 -68.972656 14.207031 -71.964844 10.1875 -71.964844 C 6.355469 -71.964844 3.738281 -68.972656 3.738281 -65.328125 L 3.738281 -6.167969 C 3.738281 -2.429688 6.355469 0.5625 10.1875 0.5625 Z M 10.1875 0.5625 "/></g></g></g><g fill="#de2025" fill-opacity="1"><g transform="translate(58.411058, 89.222857)"><g><path d="M 24.113281 1.308594 C 29.71875 1.308594 33.738281 -0.5625 36.917969 -4.765625 L 37.101562 -4.765625 L 37.289062 -3.738281 C 37.945312 -1.496094 39.71875 0.5625 43.273438 0.5625 C 47.105469 0.5625 49.628906 -2.429688 49.628906 -6.167969 L 49.628906 -43.550781 C 49.628906 -47.289062 47.105469 -50.28125 43.273438 -50.28125 C 39.71875 -50.28125 37.945312 -48.226562 37.289062 -45.980469 L 37.101562 -44.953125 L 36.917969 -44.953125 C 33.550781 -49.160156 29.71875 -51.027344 24.113281 -51.027344 C 11.496094 -51.027344 1.871094 -39.535156 1.871094 -24.859375 C 1.871094 -10.09375 11.402344 1.308594 24.113281 1.308594 Z M 25.792969 -11.027344 C 19.160156 -11.027344 14.953125 -16.824219 14.953125 -24.859375 C 14.953125 -32.804688 19.160156 -38.691406 25.703125 -38.691406 C 32.617188 -38.691406 36.636719 -32.804688 36.636719 -24.859375 C 36.636719 -16.824219 32.523438 -11.027344 25.792969 -11.027344 Z M 25.792969 -11.027344 "/></g></g></g><g fill="#de2025" fill-opacity="1"><g transform="translate(111.679749, 89.222857)"><g><path d="M 20.1875 1.308594 C 30.933594 1.308594 38.878906 -4.953125 38.878906 -14.671875 C 38.878906 -30.75 15.234375 -29.160156 15.234375 -35.703125 C 15.234375 -38.132812 17.289062 -39.625 20.1875 -39.625 C 23.085938 -39.625 25.980469 -38.039062 28.503906 -36.824219 C 29.8125 -36.167969 31.121094 -35.609375 32.148438 -35.609375 C 35.234375 -35.609375 37.664062 -37.757812 37.664062 -41.214844 C 37.664062 -43.925781 35.796875 -46.167969 33.179688 -47.851562 C 29.90625 -49.90625 25.234375 -51.027344 20.65625 -51.027344 C 10.1875 -51.027344 2.523438 -43.738281 2.523438 -35.140625 C 2.523438 -19.066406 26.261719 -21.777344 26.261719 -14.113281 C 26.261719 -11.960938 24.488281 -10.09375 20.746094 -10.09375 C 16.730469 -10.09375 13.457031 -12.054688 10.46875 -13.644531 C 9.066406 -14.484375 7.757812 -14.953125 6.542969 -14.953125 C 3.644531 -14.953125 1.121094 -12.148438 1.121094 -8.597656 C 1.121094 -6.542969 2.523438 -4.484375 4.671875 -2.992188 C 8.222656 -0.375 13.925781 1.308594 20.1875 1.308594 Z M 20.1875 1.308594 "/></g></g></g><g fill="#de2025" fill-opacity="1"><g transform="translate(151.864899, 89.222857)"><g><path d="M 10.46875 0.5625 C 14.207031 0.5625 16.917969 -2.429688 16.917969 -6.167969 L 16.917969 -30.5625 C 16.917969 -35.796875 20.375 -39.90625 25.792969 -39.90625 C 31.402344 -39.90625 34.671875 -35.886719 34.671875 -30.933594 L 34.671875 -6.167969 C 34.671875 -2.429688 37.382812 0.5625 41.121094 0.5625 C 44.953125 0.5625 47.664062 -2.335938 47.664062 -6.167969 L 47.664062 -34.113281 C 47.664062 -44.300781 40.65625 -51.027344 29.625 -51.027344 C 25.046875 -51.027344 21.402344 -49.90625 17.101562 -46.730469 L 16.917969 -46.730469 L 16.917969 -65.328125 C 16.917969 -68.972656 14.207031 -71.964844 10.46875 -71.964844 C 6.636719 -71.964844 3.925781 -68.972656 3.925781 -65.328125 L 3.925781 -6.167969 C 3.925781 -2.429688 6.636719 0.5625 10.46875 0.5625 Z M 10.46875 0.5625 "/></g></g></g></g></g><g transform="matrix(1, 0, 0, 1, 11, 76)"><g clip-path="url(#4201b8f6ef)"><g fill="#de2025" fill-opacity="1"><g transform="translate(0.946468, 87.97991)"><g><path d="M 20.171875 1.179688 C 33.757812 1.179688 42.285156 -6.246094 42.285156 -18.566406 C 42.285156 -30.046875 35.449219 -33.421875 23.714844 -37.304688 C 17.808594 -39.328125 14.683594 -40.511719 14.683594 -43.804688 C 14.683594 -47.347656 17.722656 -49.625 21.859375 -49.625 C 25.65625 -49.625 27.9375 -48.359375 30.46875 -47.433594 C 31.3125 -47.179688 32.324219 -46.925781 33.421875 -46.925781 C 36.542969 -46.925781 38.824219 -49.375 38.824219 -52.75 C 38.824219 -55.28125 37.050781 -57.476562 33.84375 -58.996094 C 31.058594 -60.34375 26.921875 -61.273438 22.449219 -61.273438 C 10.804688 -61.273438 1.6875 -54.519531 1.6875 -42.875 C 1.6875 -31.394531 10.042969 -28.78125 20.675781 -25.320312 C 26.5 -23.378906 29.371094 -21.4375 29.371094 -17.890625 C 29.371094 -13.671875 26.246094 -10.886719 20.675781 -10.886719 C 16.289062 -10.886719 12.828125 -12.40625 9.875 -13.671875 C 8.523438 -14.179688 7.34375 -14.515625 6.414062 -14.515625 C 2.953125 -14.515625 0.675781 -11.5625 0.675781 -8.1875 C 0.675781 -5.90625 2.363281 -3.964844 4.894531 -2.363281 C 8.609375 -0.167969 14.433594 1.179688 20.171875 1.179688 Z M 20.171875 1.179688 "/></g></g></g><g fill="#de2025" fill-opacity="1"><g transform="translate(45.001612, 87.97991)"><g><path d="M 5.992188 0.507812 C 9.285156 0.507812 10.972656 -0.929688 12.492188 -5.824219 L 14.515625 -11.898438 L 38.316406 -11.898438 L 40.425781 -5.65625 C 41.691406 -1.605469 43.128906 0.507812 46.925781 0.507812 C 50.386719 0.507812 52.664062 -1.433594 52.664062 -4.472656 C 52.664062 -7.003906 51.734375 -9.621094 50.890625 -11.898438 L 35.363281 -53.59375 C 33.507812 -58.574219 30.804688 -61.273438 26.5 -61.273438 C 22.027344 -61.273438 19.410156 -58.574219 17.554688 -53.59375 L 2.195312 -12.492188 C 1.179688 -9.789062 0.167969 -6.921875 0.167969 -4.472656 C 0.167969 -1.433594 2.449219 0.507812 5.992188 0.507812 Z M 18.144531 -23.125 L 26.585938 -47.515625 L 26.753906 -47.515625 L 34.6875 -23.125 Z M 18.144531 -23.125 "/></g></g></g><g fill="#de2025" fill-opacity="1"><g transform="translate(97.83402, 87.97991)"><g><path d="M 9.707031 0 L 31.058594 0 C 34.433594 0 36.964844 -2.277344 36.964844 -5.65625 C 36.964844 -9.199219 34.519531 -11.226562 30.972656 -11.226562 L 15.867188 -11.226562 L 15.867188 -54.269531 C 15.867188 -58.234375 13.503906 -60.597656 9.789062 -60.597656 C 6.160156 -60.597656 3.714844 -58.234375 3.714844 -54.269531 L 3.714844 -5.90625 C 3.714844 -2.53125 6.414062 0 9.707031 0 Z M 9.707031 0 "/></g></g></g><g fill="#de2025" fill-opacity="1"><g transform="translate(134.040252, 87.97991)"><g><path d="M 9.789062 0 L 31.480469 0 C 34.855469 0 37.386719 -2.277344 37.386719 -5.65625 C 37.386719 -9.199219 34.941406 -11.226562 31.394531 -11.226562 L 15.867188 -11.226562 L 15.867188 -24.558594 L 29.792969 -24.558594 C 33.335938 -24.558594 35.699219 -26.667969 35.699219 -30.128906 C 35.699219 -33.675781 33.167969 -35.785156 29.792969 -35.785156 L 15.953125 -35.785156 L 15.953125 -48.867188 L 30.890625 -48.867188 C 34.265625 -48.867188 36.796875 -50.890625 36.796875 -54.4375 C 36.796875 -57.8125 34.265625 -60.089844 30.890625 -60.089844 L 9.789062 -60.089844 C 6.414062 -60.089844 3.714844 -57.558594 3.714844 -54.183594 L 3.714844 -5.992188 C 3.714844 -2.53125 6.414062 0 9.789062 0 Z M 9.789062 0 "/></g></g></g></g></g><g clip-path="url(#b38f2f23cd)"><g clip-path="url(#42373cd236)"><g clip-path="url(#1ad48c37ce)"><path fill="#de2025" d="M 255.066406 103.699219 C 254.210938 102.84375 253.3125 102.03125 252.375 101.261719 C 251.441406 100.492188 250.46875 99.769531 249.460938 99.097656 C 248.453125 98.425781 247.414062 97.800781 246.34375 97.230469 C 245.273438 96.660156 244.179688 96.140625 243.058594 95.675781 C 241.941406 95.214844 240.800781 94.804688 239.640625 94.453125 C 238.480469 94.101562 237.304688 93.808594 236.117188 93.570312 C 234.929688 93.335938 233.730469 93.15625 232.523438 93.039062 C 231.316406 92.917969 230.109375 92.859375 228.894531 92.859375 C 227.683594 92.859375 226.472656 92.917969 225.269531 93.039062 C 224.0625 93.15625 222.863281 93.335938 221.675781 93.570312 C 220.484375 93.808594 219.3125 94.101562 218.152344 94.453125 C 216.992188 94.804688 215.851562 95.214844 214.730469 95.675781 C 213.609375 96.140625 212.515625 96.660156 211.449219 97.230469 C 210.378906 97.800781 209.339844 98.425781 208.332031 99.097656 C 207.324219 99.769531 206.351562 100.492188 205.414062 101.261719 C 204.476562 102.03125 203.582031 102.84375 202.722656 103.699219 C 201.867188 104.558594 201.054688 105.453125 200.285156 106.390625 C 199.515625 107.328125 198.792969 108.300781 198.121094 109.308594 C 197.445312 110.316406 196.824219 111.355469 196.253906 112.425781 C 195.679688 113.492188 195.164062 114.589844 194.699219 115.707031 C 194.234375 116.828125 193.828125 117.96875 193.476562 119.128906 C 193.125 120.289062 192.828125 121.464844 192.59375 122.652344 C 192.355469 123.839844 192.179688 125.039062 192.058594 126.246094 C 191.941406 127.453125 191.882812 128.660156 191.882812 129.875 C 191.882812 131.085938 191.941406 132.292969 192.058594 133.5 C 192.179688 134.707031 192.355469 135.90625 192.59375 137.09375 C 192.828125 138.28125 193.125 139.457031 193.476562 140.617188 C 193.828125 141.777344 194.234375 142.917969 194.699219 144.039062 C 195.164062 145.15625 195.679688 146.253906 196.253906 147.320312 C 196.824219 148.390625 197.445312 149.429688 198.121094 150.4375 C 198.792969 151.445312 199.515625 152.417969 200.285156 153.355469 C 201.054688 154.292969 201.867188 155.1875 202.722656 156.046875 C 203.582031 156.902344 204.476562 157.714844 205.414062 158.484375 C 206.351562 159.253906 207.324219 159.976562 208.332031 160.648438 C 209.339844 161.324219 210.378906 161.945312 211.449219 162.515625 C 212.515625 163.085938 213.609375 163.605469 214.730469 164.070312 C 215.851562 164.53125 216.992188 164.941406 218.152344 165.292969 C 219.3125 165.644531 220.484375 165.9375 221.675781 166.175781 C 222.863281 166.410156 224.0625 166.589844 225.269531 166.707031 C 226.472656 166.828125 227.683594 166.886719 228.894531 166.886719 C 230.109375 166.886719 231.316406 166.828125 232.523438 166.707031 C 233.730469 166.589844 234.929688 166.410156 236.117188 166.175781 C 237.304688 165.9375 238.480469 165.644531 239.640625 165.292969 C 240.800781 164.941406 241.941406 164.53125 243.058594 164.070312 C 244.179688 163.605469 245.273438 163.085938 246.34375 162.515625 C 247.414062 161.945312 248.453125 161.324219 249.460938 160.648438 C 250.46875 159.976562 251.441406 159.253906 252.375 158.484375 C 253.3125 157.714844 254.210938 156.902344 255.066406 156.046875 C 255.925781 155.1875 256.738281 154.292969 257.507812 153.355469 C 258.277344 152.417969 258.996094 151.445312 259.671875 150.4375 C 260.34375 149.429688 260.964844 148.390625 261.539062 147.320312 C 262.109375 146.25 262.625 145.15625 263.089844 144.039062 C 263.554688 142.917969 263.960938 141.777344 264.3125 140.617188 C 264.664062 139.457031 264.960938 138.28125 265.195312 137.09375 C 265.433594 135.90625 265.609375 134.707031 265.730469 133.5 C 265.847656 132.292969 265.90625 131.085938 265.90625 129.875 C 265.90625 128.660156 265.847656 127.453125 265.730469 126.246094 C 265.609375 125.039062 265.433594 123.839844 265.195312 122.652344 C 264.960938 121.464844 264.664062 120.289062 264.3125 119.128906 C 263.960938 117.96875 263.554688 116.828125 263.089844 115.707031 C 262.625 114.589844 262.109375 113.496094 261.539062 112.425781 C 260.964844 111.355469 260.34375 110.316406 259.671875 109.308594 C 258.996094 108.300781 258.277344 107.328125 257.507812 106.390625 C 256.738281 105.453125 255.925781 104.558594 255.066406 103.699219 Z M 238.367188 138.625 C 237.910156 138.171875 237.554688 137.648438 237.308594 137.050781 C 237.0625 136.453125 236.941406 135.835938 236.945312 135.1875 L 236.9375 128.71875 L 219.425781 146.230469 C 219.199219 146.457031 218.953125 146.660156 218.6875 146.835938 C 218.421875 147.015625 218.140625 147.164062 217.84375 147.285156 C 217.550781 147.410156 217.246094 147.5 216.929688 147.5625 C 216.617188 147.625 216.300781 147.65625 215.980469 147.65625 C 215.660156 147.65625 215.34375 147.625 215.03125 147.5625 C 214.71875 147.5 214.414062 147.410156 214.117188 147.285156 C 213.820312 147.164062 213.542969 147.015625 213.277344 146.835938 C 213.011719 146.660156 212.765625 146.457031 212.539062 146.230469 C 212.3125 146.003906 212.109375 145.757812 211.933594 145.492188 C 211.753906 145.226562 211.605469 144.945312 211.480469 144.652344 C 211.359375 144.355469 211.265625 144.050781 211.207031 143.738281 C 211.144531 143.425781 211.113281 143.105469 211.113281 142.789062 C 211.113281 142.46875 211.144531 142.152344 211.207031 141.835938 C 211.265625 141.523438 211.359375 141.21875 211.480469 140.925781 C 211.605469 140.628906 211.753906 140.347656 211.933594 140.082031 C 212.109375 139.816406 212.3125 139.570312 212.539062 139.34375 L 230.050781 121.832031 L 223.578125 121.824219 C 222.933594 121.828125 222.3125 121.707031 221.71875 121.460938 C 221.121094 121.214844 220.597656 120.859375 220.144531 120.402344 C 219.808594 120.058594 219.53125 119.675781 219.304688 119.253906 C 219.082031 118.828125 218.925781 118.382812 218.835938 117.910156 C 218.742188 117.441406 218.722656 116.96875 218.769531 116.492188 C 218.816406 116.015625 218.933594 115.554688 219.117188 115.113281 C 219.296875 114.667969 219.542969 114.261719 219.84375 113.890625 C 220.148438 113.519531 220.496094 113.199219 220.894531 112.929688 C 221.289062 112.664062 221.71875 112.457031 222.175781 112.3125 C 222.632812 112.171875 223.101562 112.097656 223.578125 112.09375 L 241.800781 112.09375 C 242.121094 112.089844 242.441406 112.121094 242.753906 112.183594 C 243.070312 112.246094 243.375 112.335938 243.671875 112.457031 C 243.964844 112.582031 244.246094 112.730469 244.515625 112.910156 C 244.78125 113.085938 245.027344 113.289062 245.253906 113.515625 C 245.480469 113.742188 245.683594 113.988281 245.859375 114.253906 C 246.039062 114.519531 246.1875 114.800781 246.308594 115.097656 C 246.433594 115.394531 246.523438 115.699219 246.585938 116.015625 C 246.648438 116.328125 246.679688 116.644531 246.675781 116.964844 L 246.675781 135.1875 C 246.671875 135.667969 246.597656 136.136719 246.453125 136.59375 C 246.3125 137.050781 246.105469 137.476562 245.835938 137.875 C 245.570312 138.273438 245.25 138.621094 244.878906 138.925781 C 244.507812 139.226562 244.101562 139.46875 243.65625 139.652344 C 243.214844 139.835938 242.753906 139.953125 242.277344 140 C 241.800781 140.046875 241.328125 140.027344 240.855469 139.933594 C 240.386719 139.84375 239.941406 139.683594 239.515625 139.460938 C 239.09375 139.238281 238.707031 138.960938 238.367188 138.625 Z M 238.367188 138.625 " fill-opacity="1" fill-rule="nonzero"/></g></g></g></svg>